<svg xmlns="http://www.w3.org/2000/svg">
  <symbol id="bilibili" viewBox="0 0 18 18">
    <path
      d="M3.73252 2.67094C3.33229 2.28484 3.33229 1.64373 3.73252 1.25764C4.11291 0.890684 4.71552 0.890684 5.09591 1.25764L7.21723 3.30403C7.27749 3.36218 7.32869 3.4261 7.37081 3.49407H10.5789C10.6211 3.4261 10.6723 3.36218 10.7325 3.30403L12.8538 1.25764C13.2342 0.890684 13.8368 0.890684 14.2172 1.25764C14.6175 1.64373 14.6175 2.28484 14.2172 2.67094L13.364 3.49407H14C16.2091 3.49407 18 5.28493 18 7.49407V12.9996C18 15.2087 16.2091 16.9996 14 16.9996H4C1.79086 16.9996 0 15.2087 0 12.9996V7.49406C0 5.28492 1.79086 3.49407 4 3.49407H4.58579L3.73252 2.67094ZM4 5.42343C2.89543 5.42343 2 6.31886 2 7.42343V13.0702C2 14.1748 2.89543 15.0702 4 15.0702H14C15.1046 15.0702 16 14.1748 16 13.0702V7.42343C16 6.31886 15.1046 5.42343 14 5.42343H4ZM5 9.31747C5 8.76519 5.44772 8.31747 6 8.31747C6.55228 8.31747 7 8.76519 7 9.31747V10.2115C7 10.7638 6.55228 11.2115 6 11.2115C5.44772 11.2115 5 10.7638 5 10.2115V9.31747ZM12 8.31747C11.4477 8.31747 11 8.76519 11 9.31747V10.2115C11 10.7638 11.4477 11.2115 12 11.2115C12.5523 11.2115 13 10.7638 13 10.2115V9.31747C13 8.76519 12.5523 8.31747 12 8.31747Z"
    />
  </symbol>

  <symbol id="delete" viewBox="0 0 448 512">
    <path
      d="M32 464a48 48 0 0 0 48 48h288a48 48 0 0 0 48-48V128H32zm272-256a16 16 0 0 1 32 0v224a16 16 0 0 1-32 0zm-96 0a16 16 0 0 1 32 0v224a16 16 0 0 1-32 0zm-96 0a16 16 0 0 1 32 0v224a16 16 0 0 1-32 0zM432 32H312l-9.4-18.7A24 24 0 0 0 281.1 0H166.8a23.72 23.72 0 0 0-21.4 13.3L136 32H16A16 16 0 0 0 0 48v32a16 16 0 0 0 16 16h416a16 16 0 0 0 16-16V48a16 16 0 0 0-16-16z"
    />
  </symbol>

  <symbol id="folder" fill="none" viewBox="0 0 24 24">
    <path stroke-linecap="round" stroke-linejoin="round"
          d="M9 13h6m-3-3v6m-9 1V7a2 2 0 012-2h6l2 2h6a2 2 0 012 2v8a2 2 0 01-2 2H5a2 2 0 01-2-2z"/>
  </symbol>
</svg>
